<svg viewBox="0 0 128 128" fill="none" xmlns="http://www.w3.org/2000/svg">
    <rect fill="white" />
    <path d="M22.5 100.5C-20.9091 22.2248 15.4849 2.66135 29.9546 35.7777L56 94.5" stroke="black"
        stroke-linecap="round" />
    <path d="M105 100C150 21.7248 111.984 2.66135 96.9843 35.7777L71 94" stroke="black"
        stroke-linecap="round" />
    <path d="M8 104C21.2407 99.5556 50.7778 94 63 94C75.2222 94 104.759 99.5556 118 104"
        stroke="black" stroke-width="3" stroke-linecap="round" />
    <path
        d="M17.149 28.6894C17.337 29.2535 15.821 25.264 15.5 25.5C15.1861 25.7308 12.3049 25.5601 12.1372 25.9141C12.0085 26.1857 10.8753 26.5354 10.7558 26.8397C10.5118 27.4608 9.90352 27.4704 9.5 28C8.48402 29.3335 8.46806 31.4823 7.84803 33.0606C7.53424 33.8593 7.11635 34.4883 7.11635 35.3881C7.11635 35.9245 6.88928 36.2997 6.88928 36.8136C6.88928 37.5486 7.10008 38.213 7.11635 38.9455C7.12746 39.4452 7.14988 40.2109 7.3182 40.6738C7.51008 41.2015 7.34343 42.0833 7.34343 42.6291C7.34343 43.6215 7.34343 44.6139 7.34343 45.6063C7.34343 47.2715 7.41502 48.8555 7.80388 50.4757C7.96385 51.1423 8.32822 51.7957 8.47248 52.4689C8.65795 53.3344 8.96428 54.26 9.22308 55.1181C9.77664 56.9536 10.1922 58.8329 10.8 60.6561C11.1994 61.8544 11.5896 63.0572 11.9479 64.264C12.2081 65.1403 12.3788 66.0349 12.6796 66.8943C12.9892 67.7789 12.9342 68.8767 13.3545 69.6822C13.6523 70.2529 13.9106 70.8741 14 71.5C14.1239 72.3676 14.7113 73.1821 15 74C15.2936 74.8319 15.513 75.2347 16 76C16.629 76.9885 16.5554 78.5124 17.0823 79.5661C17.5032 80.408 18.0482 81.1492 18.4069 82.0261C18.6279 82.5663 18.8258 83.1162 19.0881 83.6408C19.4015 84.2676 19.5091 85.0365 19.8891 85.6277C20.2283 86.1553 20.5715 86.9346 20.7911 87.5136C21.0703 88.2497 21.4213 88.8596 21.7562 89.5573C22.2751 90.6384 22.7992 91.6289 23.4655 92.648C24.0126 93.4848 25.3302 93.2409 26.1904 93.2409C26.765 93.2409 24.4259 95.477 25 95.5C25.2721 95.5109 28.1142 92 28.1142 93.7014C28.0898 94.0178 27.6916 94.1489 27.6916 94.2627C27.6916 94.7332 32.11 93.2725 32.479 93.1842C33.9869 92.8231 35.4915 92.3845 37 92C38.5742 92.1783 39.4724 91.6001 40.7734 91.5C41.5847 91.4376 42.5095 91.1376 43.3091 90.9954C43.607 90.9425 43.8446 90.819 44.1291 90.7557C44.3292 90.7113 44.5683 90.7985 44.7598 90.7179C45.0215 90.6077 45.5179 90.458 45.7186 90.289C46.018 90.0369 46.2043 89.8485 46.3115 89.4438C46.3702 89.2218 46.3993 88.9396 46.5701 88.7689C46.7107 88.6282 46.8539 88.6592 46.8539 88.4156C46.8539 87.537 46.7358 86.7139 46.2232 85.9683C45.4604 84.8588 44.6868 83.8126 43.8768 82.7325C43.0883 81.6813 42.7666 80.5595 42.7666 79.2508C42.7666 78.8603 42.7781 78.4678 42.7666 78.0776C42.734 76.9676 40.8792 79.3213 40.7734 79.4463C39.2321 81.2679 37.4688 83.316 35.1219 84.0382C34.2348 84.3111 33.0057 84.2378 32.0816 84.1454C30.2944 83.9667 28.5482 83.5025 26.7833 83.1867C26.3035 83.1008 25.8205 83.0683 25.4019 82.7893C24.9871 82.5128 24.6486 82.1348 24.2224 81.8747C23.7104 81.5623 23.352 81.2457 23.352 80.6132C23.352 80.2825 23.2576 79.8256 23.4908 79.5535C23.8467 79.1383 24.4329 79.0006 24.9163 78.7966C25.3606 78.6092 25.722 78.4812 26.2093 78.4812C27.05 78.4812 27.8573 78.2104 28.6945 78.1343C30.0201 78.0138 31.4047 77.7546 32.5484 77.0557C33.2908 76.6021 33.9109 75.9505 34.6173 75.441C35.3251 74.9305 35.619 74.0622 36.2951 73.574C36.5257 73.4074 36.6446 72.9287 36.806 72.6909C36.9601 72.4638 37.2747 72.2133 37.3232 71.9466C37.3994 71.5278 37.6398 71.2259 37.7647 70.8302C37.9725 70.1723 37.9152 69.4067 37.9918 68.7172C38.1229 67.5372 37.7454 66.2992 37.7454 65.1126C37.7454 64.7327 37.6521 64.7453 37.2454 64.1126C36.7584 63.355 34.3303 57.8677 33.6225 57.351C31.5758 55.8565 33.8242 57.9176 33 55.5C32.3301 53.535 30.9339 52.025 30.5 50C30.2541 48.8527 29.4474 47.8494 29.0288 46.7795C28.3613 45.0738 27.61 43.4454 27.1239 41.6956C26.9646 41.1221 26.5539 40.6377 26.3922 40.0557C26.2227 39.4453 26.0034 38.729 25.6732 38.1886C25.2076 37.4267 25.0246 36.686 24.7144 35.8485C24.5653 35.446 24.6469 35.0232 24.399 34.6564C24.2515 34.438 24.0569 34.2549 23.9197 34.0319C23.7207 33.7086 23.5963 33.3635 23.4655 33.0038C23.2961 32.5379 22.8756 32.1495 22.5825 31.7549C22.2625 31.3242 21.8981 30.925 21.5606 30.506C21.3523 30.2474 21.0372 29.6237 20.7407 29.459C20.4507 29.2979 20.1618 28.9656 19.8954 28.7525C19.667 28.5698 18.723 28.2752 18.4573 28.3047C16.642 28.5064 16.3173 30.4265 16.0289 31.8685C15.6367 33.8294 15.518 35.8935 15.518 37.9111C15.518 40.8294 15.518 43.7477 15.518 46.666C15.518 48.2349 15.4974 49.7011 15.8838 51.2326C16.1959 52.4694 16.6289 53.6571 17.24 54.7775C17.9679 56.112 18.7641 57.2736 19.2647 58.7197C19.7421 60.0988 20.5751 61.3475 20.892 62.7881C21.1236 63.8404 21.4819 64.9276 21.5417 66.0049C21.588 66.8389 21.7105 67.7257 21.9643 68.5153C22.1218 69.0052 22.4984 69.6146 23.0114 69.8021C24.1271 70.2097 24.5535 70.0594 25.3956 69.1461C25.7709 68.7391 26.7239 67.9705 26.7581 67.3547C26.8293 66.0728 26.8716 64.8056 26.8716 63.5134C26.8716 61.6905 26.8716 59.8677 26.8716 58.0448C26.8716 56.6727 26.9463 55.2556 26.6824 53.9007C26.4242 52.5756 25.7942 51.2105 25.2442 49.9837C24.7323 48.8416 24.3201 47.6612 23.8061 46.5209C22.9739 44.6744 22.2103 42.7587 21.5922 40.8315C21.501 40.5471 21.345 39.2792 21.056 39.1348C20.3911 38.8023 19.5698 42.5464 19.4918 42.8562C18.8664 45.3398 18.8105 47.7936 18.8105 50.3433C18.8105 52.6768 18.7562 55.0184 18.8358 57.351C18.9607 61.0098 20.0663 64.5067 20.4884 68.1242C20.6769 69.7404 20.5974 71.8725 21.3336 73.3721C21.758 74.2366 21.8368 74.5075 22.86 74.5075C23.6094 74.5075 24.4676 74.6289 25.1307 74.2047C26.8324 73.1163 27.9968 71.3874 29.136 69.7705C29.8359 68.7771 30.6113 67.8885 31.186 66.8123C31.8147 65.6348 32.047 64.4036 32.3781 63.1224C32.5986 62.269 32.7404 61.0261 33.3494 60.3155C33.7547 59.8427 34.0646 60.6294 34.3019 60.9589C35.0962 62.0616 35.9504 63.0869 36.8375 64.1126C37.9486 65.3974 38.727 67.1164 39.5624 68.5784C39.8642 69.1065 39.9764 69.6667 40.2688 70.1931C40.5973 70.7844 40.6756 71.4052 41 72C41.2392 72.4386 41.2828 73.0064 41.5 73.5C41.852 74.3 42.2815 75.1505 42.5 76C42.786 77.1122 43.486 77.7893 43.6749 78.9228C43.8324 79.8676 45.1546 82.5982 45.5 83.5C46.2386 85.4286 45.5464 85.9595 46.6268 87.7344C47.0126 88.3681 46.9117 90.0489 47.2608 90.7179C47.4384 91.0584 48.5 90.5 48.5 90.5"
        stroke="black" stroke-width="10" stroke-linecap="square" />
    <path
        d="M23.398 98.5267C23.3184 98.6063 23.2452 98.6867 23.2203 98.7957C23.2126 98.8293 23.1721 99.0317 23.2347 98.971C23.3396 98.8693 23.5709 98.7481 23.5709 98.5915"
        stroke="black" stroke-width="3" stroke-linecap="square" />
    <path
        d="M52.0491 93.6423C52.1328 93.6423 52.2165 93.6423 52.3002 93.6423C52.4139 93.6423 52.482 93.6998 52.5774 93.7271C52.7646 93.7805 52.8999 93.6418 53.06 93.5836C53.099 93.5694 53.1084 93.5302 53.1415 93.5086C53.1728 93.4881 53.2191 93.5104 53.2459 93.489C53.2948 93.4498 53.3716 93.4662 53.435 93.4662C53.5796 93.4662 53.7241 93.4662 53.8687 93.4662"
        stroke="black" stroke-width="3" stroke-linecap="square" />
    <path
        d="M114.499 29.893C114.478 30.0802 114.249 30.2479 114.108 30.3557C113.849 30.5553 113.608 30.9896 113.394 31.24C113.201 31.4648 112.883 31.5104 112.7 31.7438C112.472 32.0341 112.177 32.2383 111.929 32.5046C111.515 32.9491 111.247 33.5404 110.849 34.0109C110.489 34.4365 110.177 35.04 109.96 35.5481C109.847 35.8113 109.595 35.8872 109.456 36.1033C109.251 36.4211 109.096 36.7155 108.834 36.9978C108.45 37.4113 108.018 37.9011 107.816 38.427C107.728 38.6543 107.49 38.9187 107.466 39.1467C107.447 39.3318 106.051 37.8205 106 38C105.911 38.3123 107.134 40.5967 106.865 40.8124C106.477 41.123 105.585 39.0101 105.225 39.3706C104.928 39.6671 105.416 42.5801 105.225 42.9407C105.128 43.1231 104.076 41.2539 104 41.5C103.924 41.7471 104.834 43.903 104.772 44.1489C104.633 44.7067 103.384 44.0677 103 44.5C102.654 44.8887 103.117 46.9979 102.654 47.2488C102.405 47.3844 101.673 47.9639 101.564 48.2359C101.162 49.243 100.796 50.3465 100.115 51.2228C99.8125 51.6114 99.62 52.207 99.395 52.6571C99.2015 53.044 98.8827 53.5968 98.8603 54.0452C98.8351 54.5485 98.3976 54.9319 98.3976 55.4332C98.3976 56.0895 97.7723 56.9012 97.5237 57.505C97.2382 58.1984 96.89 58.8359 96.6394 59.546C96.2828 60.5563 95.2785 61.4741 95 62.5C94.7069 63.5797 94.5153 64.5911 94.0073 65.5609C93.829 65.9012 93.5909 66.1399 93.4418 66.5171C93.3075 66.8566 93.1665 67.1692 92.9379 67.463C92.7238 67.7384 92.6049 68.1832 92.4701 68.5066C92.1708 69.225 91.949 70.0008 91.6219 70.7018C90.943 72.1566 90.2437 73.5452 89.2365 74.8043C88.5813 75.6233 88.5516 76.9243 88.2545 77.9146C88.1219 78.3566 87.777 78.7919 87.7559 79.2564C87.7328 79.7638 87.42 80.1533 87.2469 80.6341C86.7419 82.0371 85.9016 83.3233 84.8872 84.3973C84.59 84.712 84.4069 85.1773 84.2395 85.554C84.0114 86.0672 82.9935 87.3322 84 87.5C85.1083 87.6847 87.5417 87.7492 88.6624 87.7492C89.4592 87.7492 90.0774 87.7492 90.8742 87.7492C91.9149 87.7492 91.9151 87.2169 92.794 87.7492C93.4377 88.139 93.9815 88.5808 94.6756 88.8391C95.22 89.0416 95.9039 89.0159 96.4132 89.3069C96.8984 89.5841 97.3789 89.7072 97.8887 89.9032C98.3758 90.0906 99.4696 90 100 90C100.594 90 100.487 89.7716 101 89.5C101.326 89.3272 101.343 88.8317 101.5 88.5C101.5 87.9609 101.776 87.3885 102 87C102.26 86.5493 102.837 85.9901 103 85.5C103.146 85.0609 103.355 84.9506 103.5 84.5C103.725 83.8031 104.086 83.1776 104.464 82.5363C104.913 81.7745 105.47 81.0763 105.759 80.2331C106.052 79.3816 106.337 78.5346 106.603 77.6729C107.145 75.9138 108.12 74.2894 108.937 72.6554C109.345 71.839 109.673 70.9357 110.006 70.0849C110.388 69.1092 111.079 68.3374 111.265 67.2831C111.368 66.7026 111.799 66.2255 111.913 65.638C112.053 64.9137 112.267 64.1823 112.504 63.4839C113.231 61.346 113.971 59.2401 114.849 57.1606C115.19 56.3512 115.112 55.2766 115.5 54.5C115.726 54.0472 115.291 53.4699 115.5 53C115.692 52.5676 115.962 51.975 116 51.5C116.11 50.1228 116.74 48.7961 116.926 47.4236C117.066 46.3823 116.998 45.3071 116.998 44.2568C116.998 43.2766 116.998 42.2964 116.998 41.3162C116.998 40.2987 117.468 36.8975 117 36C116.852 35.7154 115.771 37.8232 115.712 37.517C115.611 36.9859 115.689 36.4507 115.466 35.9491C115.281 35.5349 115.239 34.9678 115.239 34.5199C115.239 34.1035 115.239 33.687 115.239 33.2706C115.239 32.988 115.161 32.6458 115.404 32.4635C115.636 32.2893 116.402 32.2302 116.5 32.5C116.608 32.797 116.165 33.504 116.165 33.8207C116.165 34.507 115.937 33.313 115.887 33.1318C115.833 32.9345 114.988 29.7728 114.758 29.6668C114.393 29.4981 114.813 31.6851 114.478 31.4662C113.994 31.1495 108.614 34.5 108 34.5C107.513 34.5 111.405 31.6449 111 31.24C108.707 31.7777 112 31.2786 112 31C112 30.4961 112.622 29.5392 112.7 29.893C112.83 30.4864 111.49 30.636 111.815 29.9856"
        stroke="black" stroke-width="18" stroke-linecap="round" />
    <path
        d="M75.1647 89.4932C75.0954 89.6405 75.1468 89.8023 75.0881 89.9549C75.0105 90.1567 74.9571 90.3665 74.8413 90.5485C74.6692 90.8188 74.6007 91.1471 74.437 91.4166C74.1392 91.9072 73.8299 92.368 73.4796 92.8059C73.4037 92.9008 73.274 92.9765 73.1647 93.0251C73.0785 93.0634 72.859 93.2797 72.7668 93.3081C72.597 93.3603 73.1036 93.1698 73.1306 93.1698C73.9718 93.1698 74.8129 93.1698 75.6541 93.1698C75.8309 93.1698 76.0472 93.2474 76.2158 93.3081C76.4118 93.3786 76.6063 93.412 76.7945 93.4804C76.9315 93.5302 77.056 93.706 77.1966 93.706C77.3349 93.706 77.4732 93.706 77.6115 93.706C77.6948 93.706 77.6298 93.706 77.5839 93.706C77.4151 93.706 77.2687 93.6693 77.1051 93.6294C76.6035 93.507 76.119 93.3911 75.6243 93.2379C75.3845 93.1636 75.1438 93.1253 74.9009 93.0677C74.7979 93.0432 74.705 92.9871 74.5987 92.9783C74.3566 92.9581 74.122 92.8824 73.9009 92.7868C73.6793 92.691 73.3982 92.6336 73.1562 92.6336C72.9237 92.6336 72.8481 92.6723 72.6753 92.8081C72.5822 92.8812 72.7484 92.8179 72.8437 92.6336C72.9876 92.3555 73.0252 92.1639 73.2711 91.9698C73.4629 91.8184 73.7874 91.95 74.0072 91.8804C74.2005 91.8192 74.272 91.7302 74.3775 91.574C74.5484 91.3209 74.8124 91.1741 74.9434 90.8974C75.0566 90.6586 75.0914 90.3847 75.1477 90.1272C75.1738 90.0074 75.2413 89.889 75.2413 89.7698C75.2413 89.5498 75.2309 89.3478 75.203 89.1315C75.1733 88.9012 75.0251 88.8132 74.8817 88.6698C74.8386 88.6266 74.8676 88.5519 74.837 88.4995C74.7381 88.33 74.6314 88.7427 74.6243 88.7761C74.5288 89.2216 74.3793 89.6778 74.2264 90.1059C74.1076 90.4387 74.2645 90.8278 74.437 91.0974C74.765 91.6101 75.0304 91.9999 75.5519 92.3272C75.7704 92.4643 75.9528 92.6527 76.169 92.7953C76.5818 93.0677 76.9644 93.3777 77.3945 93.6208C77.7125 93.8006 78.0425 93.9795 78.3051 94.2421"
        stroke="black" stroke-width="3" stroke-linecap="round" />
    <path
        d="M105.5 96.5C105.5 96.6667 105.112 97.3875 105 97.5C104.847 97.6526 104.674 97.8721 104.5 98C104.341 98.117 104.526 98.2251 104.327 98.2251C104.1 98.2251 104.236 98.5 104 98.5C103.816 98.5 103.29 98.3783 103.105 98.3783C102.997 98.3783 102.888 98.3783 102.78 98.3783C102.661 98.3783 102.566 98.3047 102.441 98.3017C102.228 98.2966 101.65 98.2759 101.514 98.0719"
        stroke="black" stroke-width="3" stroke-linecap="round" />
</svg>