<svg viewBox="0 0 32 16" fill="none" xmlns="http://www.w3.org/2000/svg">
    <!-- <rect width="23" height="16" fill="white" /> -->
    <path d="M4.50263 14.1204C-2.99737 1.12038 3.50262 -1.87962 6.00263 3.62038L10.5026 13.6204"
        stroke="black" stroke-linecap="round" />
    <path d="M18.5 14.1204C26 1.12038 19.5 -1.87962 17 3.62038L12.5026 13.6204" stroke="black"
        stroke-linecap="round" />
    <path
        d="M2.50262 15.1204C4.66929 14.4537 9.50262 13.6204 11.5026 13.6204C13.5026 13.6204 18.336 14.4537 20.5026 15.1204"
        stroke="black" stroke-linecap="round" />
    <path
        d="M16.8296 13.1763C16.8756 12.9545 12.3296 12.6763 16.0026 12.6204C16.0971 12.4609 15.4412 11.2942 15.5026 11.1204C15.5706 10.9281 17.4059 12.7986 17.5026 12.6204C17.8014 12.0701 15.8923 10.2311 16.0026 9.62037C16.8296 8.20971 19.5026 12.1204 19.0026 10.1204C21.0026 5.12037 15.0026 9.12037 17.0026 7.12037C17.0026 6.62037 17.828 6.74119 18.0026 6.12037C16.9257 5.32511 17.5026 5.62037 19.5026 6.12037C21.0026 8.62037 18.3476 4.45498 18.5026 4.12037C18.5929 3.92551 21.6482 7.36366 19.5026 3.62037C19.5026 3.62037 19.0026 2.62038 20.0026 3.12038C20.5026 4.12038 20.0931 2.87708 20.1912 2.87708"
        stroke="black" stroke-width="3" stroke-linecap="round" />
    <path
        d="M6.00367 13.1763C5.95763 12.9545 11.0026 12.6204 6.83063 12.6204C6.73614 12.4609 7.56403 11.2942 7.50263 11.1204C7.43471 10.9281 5.42737 12.7986 5.33063 12.6204C5.03191 12.0701 6.94097 10.2311 6.83063 9.62037C6.00367 8.20971 3.33063 12.1204 3.83063 10.1204C1.83063 5.12037 7.83063 9.12037 5.83063 7.12037C5.83063 6.62037 5.00524 6.74119 4.83063 6.12037C5.9076 5.32511 5.33063 5.62037 3.33063 6.12037C1.83063 8.62037 4.65506 4.33461 4.5 4C4.4097 3.80513 1.18503 7.36366 3.33064 3.62037C3.33064 3.62037 3.83065 2.62038 2.83065 3.12038C2.33065 4.12038 2.74018 2.87708 2.64205 2.87708"
        stroke="black" stroke-width="3" stroke-linecap="round" />
</svg>