<svg viewBox="0 0 42 40" fill="none" xmlns="http://www.w3.org/2000/svg">
    <rect fill="white" />
    <path d="M14 26C6.5 13 13 10 15.5 15.5L20 25.5" stroke="black" stroke-linecap="round" />
    <path d="M27.9974 26C35.4974 13 28.9974 10 26.4974 15.5L22 25.5" stroke="black"
        stroke-linecap="round" />
    <path d="M12 27C14.1667 26.3333 19 25.5 21 25.5C23 25.5 27.8333 26.3333 30 27" stroke="black"
        stroke-linecap="round" />
    <path
        d="M26.327 25.056C26.373 24.8341 21.827 24.556 25.5 24.5C25.5945 24.3405 24.9386 23.1738 25 23C25.0679 22.8077 26.9033 24.6782 27 24.5C27.2987 23.9497 25.3897 22.1108 25.5 21.5C26.327 20.0893 29 24 28.5 22C30.5 17 24.5 21 26.5 19C26.5 18.5 27.3254 18.6208 27.5 18C26.423 17.2047 27 17.5 29 18C30.5 20.5 27.845 16.3346 28 16C28.0903 15.8051 31.1456 19.2433 29 15.5C29 15.5 28.5 14.5 29.5 15C30 16 29.5905 14.7567 29.6886 14.7567"
        stroke="black" stroke-width="3" stroke-linecap="round" />
    <path
        d="M15.501 25.056C15.455 24.8341 20.5 24.5 16.328 24.5C16.2335 24.3405 17.0614 23.1738 17 23C16.9321 22.8077 14.9247 24.6782 14.828 24.5C14.5293 23.9497 16.4383 22.1108 16.328 21.5C15.501 20.0893 12.828 24 13.328 22C11.328 17 17.328 21 15.328 19C15.328 18.5 14.5026 18.6208 14.328 18C15.405 17.2047 14.828 17.5 12.828 18C11.328 20.5 13.9831 16.3346 13.828 16C13.7377 15.8051 10.6824 19.2433 12.828 15.5C12.828 15.5 13.328 14.5 12.328 15C11.828 16 12.2376 14.7567 12.1394 14.7567"
        stroke="black" stroke-width="3" stroke-linecap="round" />
</svg>