<svg viewBox="0 0 26 24" fill="none" xmlns="http://www.w3.org/2000/svg">
    <rect fill="white" />
    <path d="M6 18C-1.5 5 5 2.00001 7.5 7.5L12 17.5" stroke="black" stroke-linecap="round" />
    <path d="M19.9974 18C27.4974 5 20.9974 2.00001 18.4974 7.5L14 17.5" stroke="black"
        stroke-linecap="round" />
    <path d="M4 19C6.16667 18.3333 11 17.5 13 17.5C15 17.5 19.8333 18.3333 22 19" stroke="black"
        stroke-linecap="round" />
    <path
        d="M18.327 17.056C18.373 16.8341 13.827 16.556 17.5 16.5C17.5945 16.3405 16.9386 15.1738 17 15C17.0679 14.8077 18.9033 16.6782 19 16.5C19.2987 15.9497 17.3897 14.1108 17.5 13.5C18.327 12.0893 21 16 20.5 14C22.5 8.99999 16.5 13 18.5 11C18.5 10.5 19.3254 10.6208 19.5 9.99999C18.423 9.20474 19 9.49999 21 9.99999C22.5 12.5 19.845 8.3346 20 7.99999C20.0903 7.80513 23.1456 11.2433 21 7.5C21 7.5 20.5 6.5 21.5 7C22 8 21.5905 6.7567 21.6886 6.7567"
        stroke="black" stroke-width="3" stroke-linecap="round" />
    <path
        d="M7.50104 17.056C7.455 16.8341 12.5 16.5 8.328 16.5C8.23351 16.3405 9.0614 15.1738 9 15C8.93208 14.8077 6.92474 16.6782 6.828 16.5C6.52928 15.9497 8.43834 14.1108 8.328 13.5C7.50104 12.0893 4.828 16 5.328 14C3.328 8.99999 9.328 13 7.328 11C7.328 10.5 6.50261 10.6208 6.328 9.99999C7.40497 9.20474 6.828 9.49999 4.828 9.99999C3.328 12.5 5.98306 8.3346 5.828 7.99999C5.7377 7.80513 2.6824 11.2433 4.82801 7.5C4.82801 7.5 5.32802 6.5 4.32802 7C3.82802 8 4.23755 6.7567 4.13942 6.7567"
        stroke="black" stroke-width="3" stroke-linecap="round" />
</svg>
    