<?xml version="1.0" encoding="UTF-8"?>
<svg width="312px" height="312px" viewBox="0 0 312 312" version="1.1" xmlns="http://www.w3.org/2000/svg" xmlns:xlink="http://www.w3.org/1999/xlink">
    <title>sun</title>
    <g id="a" stroke="none" stroke-width="1" fill="none" fill-rule="evenodd">
        <g id="Artboard" transform="translate(-2043.000000, -1365.000000)" fill="#FFB427" fill-rule="nonzero">
            <g id="sun" transform="translate(2043.000000, 1365.000000)">
                <path d="M156,72 C109.681549,72 72,109.685644 72,156 C72,202.314356 109.681549,240 156,240 C202.311025,240 240,202.321782 240,156 C240,109.678218 202.311025,72 156,72 Z" id="Path"></path>
                <g id="Group">
                    <path d="M155.910787,54.8518731 C147.493814,54.8518731 140.671854,48.029913 140.671854,39.6198449 L140.671854,15.238933 C140.671854,6.82196005 147.493814,0 155.910787,0 C164.32776,0 171.14972,6.82196005 171.14972,15.238933 L171.14972,39.6198449 C171.14972,48.029913 164.320855,54.8518731 155.910787,54.8518731 Z" id="Path"></path>
                    <path d="M155.910787,256.962797 C147.493814,256.962797 140.671854,263.784757 140.671854,272.20173 L140.671854,296.575737 C140.671854,304.999615 147.493814,311.821575 155.910787,311.821575 C164.32776,311.821575 171.14972,304.999615 171.14972,296.575737 L171.14972,272.20173 C171.14972,263.784757 164.320855,256.962797 155.910787,256.962797 Z" id="Path"></path>
                    <path d="M227.361843,84.4528273 C221.416794,78.5008743 221.416794,68.8548437 227.361843,62.9028907 L244.603173,45.6615605 C250.548221,39.7165123 260.201156,39.7165123 266.153109,45.6615605 C272.105062,51.6135135 272.105062,61.2664489 266.153109,67.2114971 L248.911779,84.4528273 C242.966731,90.4047803 233.3207,90.4047803 227.361843,84.4528273 Z" id="Path"></path>
                    <path d="M84.4528273,227.375652 C78.5008743,221.416794 68.8548437,221.416794 62.9028907,227.375652 L45.6615605,244.610078 C39.7165123,250.555126 39.7096075,260.214966 45.6615605,266.160014 C51.6135135,272.105062 61.2664489,272.105062 67.2114971,266.160014 L84.4528273,248.911779 C90.4047803,242.966731 90.4047803,233.313796 84.4528273,227.375652 Z" id="Path"></path>
                    <path d="M256.962797,155.910787 C256.962797,147.493814 263.784757,140.671854 272.20173,140.671854 L296.582642,140.671854 C304.999615,140.671854 311.821575,147.493814 311.821575,155.910787 C311.821575,164.32776 304.999615,171.142816 296.582642,171.142816 L272.20173,171.142816 C263.784757,171.142816 256.962797,164.32776 256.962797,155.910787 Z" id="Path"></path>
                    <path d="M54.8518731,155.910787 C54.8518731,147.493814 48.029913,140.671854 39.6129401,140.671854 L15.238933,140.671854 C6.82196005,140.671854 0,147.493814 0,155.910787 C0,164.32776 6.82196005,171.142816 15.238933,171.142816 L39.6198449,171.142816 C48.029913,171.142816 54.8518731,164.32776 54.8518731,155.910787 Z" id="Path"></path>
                    <path d="M227.361843,227.375652 C233.313796,221.430604 242.966731,221.430604 248.911779,227.375652 L266.153109,244.616982 C272.105062,250.555126 272.105062,260.214966 266.153109,266.160014 C260.201156,272.105062 250.555126,272.105062 244.603173,266.160014 L227.361843,248.918684 C221.40989,242.966731 221.40989,233.3207 227.361843,227.375652 Z" id="Path"></path>
                    <path d="M84.4528273,84.4528273 C90.4047803,78.5008743 90.4047803,68.8548437 84.4528273,62.9028907 L67.2114971,45.6684653 C61.2595441,39.7165123 51.6135135,39.7165123 45.6615605,45.6684653 C39.7096075,51.6135135 39.7096075,61.2664489 45.6615605,67.2114971 L62.9028907,84.4528273 C68.8548437,90.4116851 78.5008743,90.4116851 84.4528273,84.4528273 Z" id="Path"></path>
                </g>
            </g>
        </g>
    </g>
</svg>